<svg width="51" height="42" viewBox="0 0 51 42" fill="none" xmlns="http://www.w3.org/2000/svg">
<path d="M12.1667 25H6.2C3.43857 25 1.2 27.2386 1.2 30V37C1.2 39.7614 3.43857 42 6.2 42H44.2C46.9614 42 49.2 39.7614 49.2 37V30C49.2 27.2386 46.9614 25 44.2 25H37.6333C36.0685 25 34.8 26.2685 34.8 27.8333C34.8 29.3981 33.5315 30.6667 31.9667 30.6667H17.8333C16.2685 30.6667 15 29.3981 15 27.8333C15 26.2685 13.7315 25 12.1667 25Z" fill="#D4D4D8"/>
<path d="M10.8 8.99988H39.6" stroke="#161616" stroke-width="2" stroke-miterlimit="10" stroke-linecap="round" stroke-linejoin="round"/>
<path d="M10.8 16.9999H39.6" stroke="#161616" stroke-width="2" stroke-miterlimit="10" stroke-linecap="round" stroke-linejoin="round"/>
<path d="M1.2 25H15.6V31H34.8V25H49.2" stroke="#161616" stroke-width="2" stroke-miterlimit="10" stroke-linecap="round" stroke-linejoin="round"/>
<path d="M44.4 1H6C3.34903 1 1.2 2.79086 1.2 5V37C1.2 39.2091 3.34903 41 6 41H44.4C47.051 41 49.2 39.2091 49.2 37V5C49.2 2.79086 47.051 1 44.4 1Z" stroke="#161616" stroke-width="2" stroke-miterlimit="10" stroke-linecap="round" stroke-linejoin="round"/>
</svg>
