<svg width="56" height="42" viewBox="0 0 56 42" fill="none" xmlns="http://www.w3.org/2000/svg">
<path d="M37.2745 18.4608C36.6614 17.939 35.9151 17.5391 35.0911 17.2906C34.2672 17.0421 33.3866 16.9515 32.5148 17.0255C31.6431 17.0995 30.8025 17.3361 30.0555 17.7179C29.3085 18.0997 28.6744 18.6168 28.2001 19.2308C27.7259 18.6166 27.0918 18.0994 26.3448 17.7175C25.5978 17.3356 24.7572 17.0989 23.8853 17.0249C23.0135 16.9509 22.1329 17.0416 21.3089 17.2902C20.4848 17.5387 19.7386 17.9389 19.1257 18.4608C18.0196 19.4034 17.4004 20.6694 17.4004 21.9878C17.4004 23.3061 18.0196 24.5721 19.1257 25.5148L28.2001 33.1998L37.2769 25.5158C38.3821 24.5724 39.0005 23.3062 39.0001 21.9879C38.9997 20.6695 38.3803 19.4036 37.2745 18.4608V18.4608Z" fill="#D4D4D8" stroke="#161616" stroke-width="2" stroke-miterlimit="10" stroke-linecap="round" stroke-linejoin="round"/>
<path d="M49.8 41H6.60005C5.32701 41 4.10611 40.5786 3.20594 39.8284C2.30576 39.0783 1.80005 38.0609 1.80005 37V1H21L27 9H54.6V37C54.6 38.0609 54.0943 39.0783 53.1942 39.8284C52.294 40.5786 51.0731 41 49.8 41Z" stroke="#161616" stroke-width="2" stroke-miterlimit="10" stroke-linecap="round" stroke-linejoin="round"/>
</svg>
