<svg width="200" height="20" viewBox="0 0 200 20" fill="none" xmlns="http://www.w3.org/2000/svg">
<path d="M19.2109 5.35384C18.4905 5.61922 17.7301 5.78508 16.9296 5.88459C17.7301 5.48653 18.3705 4.85625 18.6506 4.09329C17.8902 4.45819 17.0497 4.72356 16.1292 4.88942C15.4088 4.25915 14.3682 3.86108 13.2475 3.86108C11.0863 3.86108 9.32531 5.32066 9.32531 7.11197C9.32531 7.37735 9.36533 7.60955 9.44538 7.84176C6.20353 7.70907 3.28187 6.41535 1.32075 4.42501C1.00057 4.9226 0.800456 5.45335 0.800456 6.05045C0.800456 7.17831 1.48084 8.17348 2.56146 8.77058C1.92109 8.73741 1.32075 8.60472 0.760433 8.37252V8.40569C0.760433 9.99796 2.12121 11.3248 3.92223 11.6234C3.60205 11.6897 3.24185 11.7229 2.88164 11.7229C2.6415 11.7229 2.36134 11.6897 2.12121 11.6566C2.6415 12.9503 4.08232 13.9123 5.8033 13.9123C4.44253 14.7748 2.76157 15.3055 0.920524 15.3055C0.600342 15.3055 0.280159 15.3055 0 15.2724C1.761 16.2012 3.80216 16.7319 6.04344 16.7319C13.2876 16.7319 17.2498 11.7561 17.2498 7.44369C17.2498 7.311 17.2498 7.14514 17.2498 7.01245C18.0103 6.58121 18.6906 6.01728 19.2109 5.35384Z" fill="#27272A"/>
<path d="M63.6555 18.6364V10.7227H60.4424V7.63856H63.6555V5.3641C63.6555 2.72461 65.6005 1.28735 68.4414 1.28735C69.8022 1.28735 70.9717 1.37133 71.3125 1.40886V4.16729L69.3422 4.16803C67.7972 4.16803 67.4981 4.77653 67.4981 5.66948V7.63856H71.1828L70.703 10.7227H67.4981V18.6364H63.6555Z" fill="#18181B"/>
<path d="M124.19 1.7394C127.3 1.7394 127.668 1.74906 128.897 1.79548C129.635 1.80297 130.367 1.91538 131.06 2.12783C131.562 2.28841 132.018 2.5344 132.399 2.84997C132.78 3.16554 133.076 3.54369 133.27 3.96008C133.526 4.53427 133.662 5.14063 133.671 5.75281C133.727 6.77098 133.739 7.07621 133.739 9.65359C133.739 12.231 133.727 12.5362 133.671 13.5544C133.662 14.1666 133.526 14.7729 133.27 15.3471C133.076 15.7635 132.78 16.1416 132.399 16.4572C132.018 16.7728 131.562 17.0188 131.06 17.1794C130.367 17.3918 129.635 17.5042 128.897 17.5117C127.669 17.5577 127.3 17.5678 124.19 17.5678C121.08 17.5678 120.712 17.5581 119.484 17.5117C118.745 17.5042 118.014 17.3918 117.321 17.1794C116.819 17.0188 116.362 16.7728 115.982 16.4572C115.601 16.1416 115.304 15.7635 115.11 15.3471C114.854 14.7729 114.718 14.1666 114.709 13.5544C114.654 12.5362 114.642 12.231 114.642 9.65359C114.642 7.07621 114.653 6.77098 114.709 5.75281C114.718 5.14063 114.854 4.53427 115.11 3.96008C115.304 3.54369 115.601 3.16554 115.982 2.84997C116.362 2.5344 116.819 2.28841 117.321 2.12783C118.014 1.91538 118.745 1.80297 119.484 1.79548C120.712 1.74952 121.081 1.7394 124.19 1.7394V1.7394ZM124.19 0C121.029 0 120.631 0.0110321 119.389 0.0579188C118.422 0.0738547 117.465 0.225553 116.56 0.50656C115.783 0.749114 115.08 1.12922 114.499 1.62035C113.905 2.10226 113.447 2.68568 113.154 3.32987C112.815 4.08033 112.632 4.87302 112.612 5.6742C112.557 6.70295 112.544 7.033 112.544 9.65313C112.544 12.2733 112.557 12.6033 112.613 13.633C112.633 14.4342 112.816 15.2269 113.155 15.9773C113.447 16.6214 113.906 17.2048 114.499 17.6868C115.08 18.1781 115.784 18.5582 116.561 18.8006C117.467 19.0816 118.423 19.2333 119.39 19.2493C120.632 19.2952 121.028 19.3072 124.191 19.3072C127.354 19.3072 127.751 19.2962 128.993 19.2493C129.96 19.2333 130.916 19.0816 131.822 18.8006C132.595 18.5521 133.297 18.1726 133.884 17.6863C134.47 17.2 134.928 16.6176 135.227 15.9764C135.566 15.2259 135.749 14.4333 135.768 13.6321C135.824 12.6033 135.837 12.2733 135.837 9.65313C135.837 7.033 135.824 6.70295 135.767 5.67329C135.748 4.8721 135.565 4.07941 135.226 3.32895C134.933 2.68485 134.475 2.10143 133.882 1.61943C133.3 1.12819 132.596 0.748076 131.819 0.50564C130.914 0.224633 129.958 0.0729354 128.991 0.0569995C127.75 0.0110322 127.351 0 124.19 0Z" fill="#27272A"/>
<path d="M124.188 4.69629C123.005 4.69629 121.849 4.98702 120.865 5.53171C119.882 6.07641 119.115 6.8506 118.663 7.7564C118.21 8.66219 118.091 9.6589 118.322 10.6205C118.553 11.5821 119.123 12.4653 119.959 13.1586C120.795 13.8519 121.861 14.324 123.021 14.5153C124.182 14.7065 125.384 14.6084 126.477 14.2332C127.57 13.858 128.504 13.2226 129.161 12.4074C129.818 11.5922 130.169 10.6338 130.169 9.6534C130.169 8.3387 129.539 7.07783 128.417 6.14819C127.296 5.21856 125.774 4.69629 124.188 4.69629ZM124.188 12.8711C123.42 12.8711 122.67 12.6824 122.031 12.3288C121.393 11.9753 120.895 11.4727 120.601 10.8848C120.308 10.2968 120.231 9.64983 120.381 9.02566C120.53 8.40148 120.9 7.82814 121.443 7.37814C121.986 6.92813 122.678 6.62168 123.431 6.49752C124.184 6.37336 124.964 6.43708 125.674 6.68063C126.383 6.92417 126.989 7.33659 127.416 7.86574C127.843 8.39489 128.07 9.017 128.07 9.6534C128.07 10.5068 127.661 11.3252 126.933 11.9287C126.205 12.5321 125.218 12.8711 124.188 12.8711V12.8711Z" fill="#27272A"/>
<path d="M130.406 5.65855C131.178 5.65855 131.804 5.13993 131.804 4.50017C131.804 3.86042 131.178 3.3418 130.406 3.3418C129.634 3.3418 129.008 3.86042 129.008 4.50017C129.008 5.13993 129.634 5.65855 130.406 5.65855Z" fill="#27272A"/>
<path fill-rule="evenodd" clip-rule="evenodd" d="M188.208 0C182.034 0 177.068 4.11672 177.068 9.23377C177.068 13.312 180.271 16.7747 184.68 18.0058C185.237 18.0828 185.423 17.8135 185.423 17.5442C185.423 17.3133 185.423 16.7362 185.423 15.9667C182.313 16.5438 181.663 14.7356 181.663 14.7356C181.153 13.6583 180.41 13.389 180.41 13.389C179.389 12.8119 180.503 12.8119 180.503 12.8119C181.617 12.8888 182.22 13.7737 182.22 13.7737C183.195 15.1972 184.82 14.774 185.47 14.5432C185.562 13.9276 185.841 13.5429 186.166 13.312C183.706 13.0812 181.106 12.2732 181.106 8.7336C181.106 7.73328 181.524 6.88685 182.267 6.27127C182.174 6.04042 181.756 5.11704 182.359 3.80893C182.359 3.80893 183.288 3.57808 185.423 4.77078C186.305 4.57841 187.28 4.46299 188.208 4.46299C189.137 4.46299 190.111 4.57841 190.993 4.77078C193.129 3.57808 194.057 3.80893 194.057 3.80893C194.661 5.07857 194.289 6.00195 194.15 6.27127C194.846 6.92532 195.31 7.73328 195.31 8.7336C195.31 12.2732 192.711 13.0427 190.204 13.2735C190.622 13.5429 190.947 14.12 190.947 14.9664C190.947 16.1976 190.947 17.1979 190.947 17.5057C190.947 17.7365 191.133 18.0443 191.736 17.9674C196.146 16.7747 199.349 13.312 199.349 9.23377C199.349 4.11672 194.382 0 188.208 0Z" fill="#27272A"/>
</svg>
